<svg width="25" height="24" viewBox="0 0 25 24" fill="none" xmlns="http://www.w3.org/2000/svg">
<g clip-path="url(#clip0_61_841)">
<path d="M12.5 0C5.93634 0 0.615356 5.32098 0.615356 11.8846C0.615356 17.458 4.45266 22.1349 9.62912 23.4193V15.5166H7.17852V11.8846H9.62912V10.3196C9.62912 6.2746 11.4598 4.39968 15.4312 4.39968C16.1842 4.39968 17.4834 4.54753 18.0149 4.6949V7.98694C17.7344 7.95746 17.2472 7.94273 16.642 7.94273C14.6934 7.94273 13.9404 8.681 13.9404 10.6001V11.8846H17.8224L17.1554 15.5166H13.9404V23.6822C19.8252 22.9715 24.3851 17.961 24.3851 11.8846C24.3846 5.32098 19.0636 0 12.5 0Z" fill="white"/>
</g>
<defs>
<clipPath id="clip0_61_841">
<rect width="23.7692" height="23.7692" fill="white" transform="translate(0.615356)"/>
</clipPath>
</defs>
</svg>
