<svg width="524" height="524" viewBox="0 0 524 524" fill="none" xmlns="http://www.w3.org/2000/svg">
<path d="M0 0H524V524H0V0Z" fill="#F2F2F2"/>
<path d="M357.803 150C357.803 140 356.636 132.667 354.303 128C352.303 123 348.303 119.5 342.303 117.5C336.303 115.5 326.803 114.5 313.803 114.5C312.803 114.5 312.303 113.5 312.303 111.5C312.303 109.5 312.803 108.5 313.803 108.5L337.803 109C352.469 109.667 364.636 110 374.303 110C383.303 110 394.803 109.667 408.803 109L433.303 108.5C434.303 108.5 434.803 109.5 434.803 111.5C434.803 113.5 434.303 114.5 433.303 114.5C420.636 114.5 411.303 115.5 405.303 117.5C399.303 119.167 395.136 122.333 392.803 127C390.803 131.667 389.803 139 389.803 149V380.5C389.803 390.5 390.803 398 392.803 403C395.136 407.667 399.303 410.833 405.303 412.5C411.303 414.167 420.636 415 433.303 415C434.303 415 434.803 416 434.803 418C434.803 420 434.303 421 433.303 421C422.969 421 414.803 420.833 408.803 420.5L374.303 420L337.803 420.5C331.803 420.833 323.803 421 313.803 421C312.803 421 312.303 420 312.303 418C312.303 416 312.803 415 313.803 415C326.803 415 336.303 414.167 342.303 412.5C348.303 410.833 352.303 407.667 354.303 403C356.636 398 357.803 390.5 357.803 380.5V150ZM148.303 253H371.803V263.5H148.303V253ZM133.803 149C133.803 139 132.636 131.667 130.303 127C128.303 122.333 124.303 119.167 118.303 117.5C112.303 115.5 102.969 114.5 90.3027 114.5C89.6361 114.5 89.3027 113.5 89.3027 111.5C89.3027 109.5 89.6361 108.5 90.3027 108.5L115.803 109C129.803 109.667 140.969 110 149.303 110C158.969 110 171.136 109.667 185.803 109L209.803 108.5C210.469 108.5 210.803 109.5 210.803 111.5C210.803 113.5 210.469 114.5 209.803 114.5C197.136 114.5 187.636 115.5 181.303 117.5C175.303 119.5 171.136 123 168.803 128C166.803 132.667 165.803 140 165.803 150V380.5C165.803 390.5 166.803 398 168.803 403C171.136 407.667 175.303 410.833 181.303 412.5C187.303 414.167 196.803 415 209.803 415C210.469 415 210.803 416 210.803 418C210.803 420 210.469 421 209.803 421C199.469 421 191.303 420.833 185.303 420.5L149.303 420L114.803 420.5C108.803 420.833 100.469 421 89.8027 421C89.1361 421 88.8027 420 88.8027 418C88.8027 416 89.1361 415 89.8027 415C102.469 415 111.803 414.167 117.803 412.5C124.136 410.833 128.303 407.667 130.303 403C132.636 398 133.803 390.5 133.803 380.5V149Z" fill="#2F4A52"/>
</svg>
