<svg width="105" height="745" viewBox="0 0 105 745" fill="none" xmlns="http://www.w3.org/2000/svg">
<path d="M18.5062 661.42C15.4184 661.421 13.1541 661.782 11.7135 662.503C10.1698 663.121 9.0896 664.357 8.47279 666.21C7.85599 668.063 7.54842 670.996 7.55006 675.01C7.55019 675.319 7.24147 675.474 6.62391 675.474C6.00635 675.474 5.69751 675.32 5.69739 675.011L5.84874 667.6C6.05273 663.072 6.15412 659.315 6.1529 656.33C6.15176 653.551 6.04738 650 5.83976 645.677L5.68227 638.112C5.68215 637.803 5.99086 637.649 6.60842 637.648C7.22598 637.648 7.53482 637.802 7.53495 638.111C7.53655 642.022 7.84651 644.904 8.46483 646.757C8.98022 648.609 9.95855 649.895 11.3998 650.615C12.8411 651.232 15.1056 651.54 18.1934 651.539L89.6759 651.51C92.7637 651.508 95.0795 651.199 96.6231 650.58C98.0638 649.859 99.0411 648.572 99.5549 646.719C100.069 644.867 100.325 641.984 100.323 638.073C100.323 637.764 100.632 637.61 101.249 637.61C101.867 637.609 102.176 637.764 102.176 638.073C102.177 641.263 102.127 643.785 102.025 645.638L101.875 656.291L102.034 667.561C102.137 669.414 102.19 671.884 102.191 674.972C102.191 675.28 101.883 675.435 101.265 675.435C100.647 675.436 100.339 675.281 100.338 674.972C100.337 670.958 100.078 668.025 99.5629 666.173C99.0475 664.32 98.0692 663.085 96.628 662.468C95.0838 661.749 92.7678 661.389 89.68 661.391L18.5062 661.42ZM50.337 726.096L50.3088 657.084L53.5509 657.082L53.5792 726.095L50.337 726.096ZM18.2257 730.587C15.1379 730.588 12.8737 730.949 11.433 731.67C9.99229 732.288 9.01499 733.524 8.50112 735.377C7.88432 737.23 7.57672 740.112 7.57832 744.023C7.57841 744.229 7.26967 744.332 6.65211 744.332C6.03455 744.332 5.72573 744.229 5.72565 744.024L5.87681 736.15C6.08089 731.827 6.18241 728.379 6.18135 725.805C6.18013 722.82 6.07567 719.064 5.86796 714.535L5.71054 707.124C5.71045 706.918 6.01919 706.815 6.63675 706.815C7.25431 706.815 7.56313 706.918 7.56321 707.124C7.56481 711.035 7.87479 713.968 8.49315 715.923C9.11148 717.776 10.1927 719.062 11.7369 719.782C13.1782 720.399 15.4427 720.707 18.5305 720.705L89.7043 720.676C92.7921 720.675 95.1078 720.365 96.6514 719.747C98.0921 719.026 99.0694 717.739 99.5833 715.886C100.097 714.033 100.353 711.1 100.352 707.086C100.352 706.88 100.66 706.777 101.278 706.776C101.895 706.776 102.204 706.879 102.204 707.085C102.206 710.276 102.155 712.797 102.053 714.65L101.903 725.766L102.062 736.419C102.166 738.272 102.218 740.845 102.219 744.138C102.22 744.344 101.911 744.447 101.293 744.448C100.676 744.448 100.367 744.345 100.367 744.139C100.365 740.228 100.107 737.346 99.5913 735.494C99.0759 733.538 98.0975 732.252 96.6563 731.635C95.1121 730.915 92.7961 730.556 89.7083 730.557L18.2257 730.587ZM104.003 575.885C104.007 585.457 101.798 594.001 97.375 601.517C92.8492 608.929 86.7789 614.696 79.164 618.816C71.4462 622.833 63.0585 624.844 54.0009 624.847C43.3995 624.852 34.3408 622.179 26.825 616.83C19.2062 611.481 13.491 604.639 9.67929 596.303C5.86754 587.865 3.95988 579.271 3.9563 570.522C3.95229 560.744 6.26462 552.149 10.8933 544.736C15.419 537.324 21.4379 531.66 28.95 527.746C36.462 523.729 44.438 521.719 52.8779 521.715C62.2443 521.711 70.8397 524.178 78.6641 529.115C86.4886 534.053 92.6669 540.689 97.1991 549.024C101.731 557.256 103.999 566.21 104.003 575.885ZM100.759 570.483C100.756 563.484 99.0551 557.206 95.6562 551.649C92.2573 545.99 87.3151 541.566 80.8294 538.378C74.2407 535.087 66.3661 533.443 57.2057 533.447C47.5306 533.451 38.9369 535.256 31.4248 538.861C23.9126 542.467 18.0479 547.564 13.8306 554.153C9.61322 560.639 7.50634 568.257 7.50992 577.005C7.51456 588.327 11.1721 597.178 18.4825 603.556C25.7929 609.934 35.8296 613.121 48.5925 613.116C58.2676 613.112 67.1185 611.307 75.1453 607.701C83.0692 604.096 89.3457 599.05 93.9747 592.563C98.5008 586.077 100.762 578.717 100.759 570.483ZM88.9904 485.631C91.9753 485.63 94.1366 485.32 95.4744 484.702C96.8122 484.084 97.7381 482.951 98.2521 481.304C98.6631 479.657 98.8679 476.981 98.8663 473.276L98.8594 456.447C98.857 450.58 97.0539 445.898 93.45 442.4C89.8462 438.902 84.8533 436.588 78.4714 435.459C78.1626 435.459 78.0596 435.201 78.1623 434.687C78.162 434.069 78.3163 433.76 78.6251 433.76C87.1684 434.683 94.219 435.143 99.7771 435.141C100.6 435.141 101.218 435.295 101.63 435.604C101.939 435.912 102.093 436.53 102.094 437.456L102.123 508.784C102.123 508.99 101.814 509.093 101.197 509.093C100.579 509.094 100.27 508.991 100.27 508.785C100.269 504.874 100.01 502.043 99.495 500.294C98.9796 498.441 98.0013 497.207 96.56 496.59C95.0159 495.973 92.6999 495.665 89.6121 495.666L18.1295 495.695C15.0417 495.697 12.7775 496.006 11.3368 496.625C9.89603 497.243 8.91873 498.478 8.40486 500.331C7.78802 502.081 7.4804 504.912 7.482 508.823C7.48208 509.029 7.17335 509.132 6.55579 509.132C5.93823 509.132 5.62941 509.03 5.62933 508.824L5.78062 501.259C5.9847 496.936 6.08619 493.436 6.08509 490.76C6.08391 487.878 5.97951 484.276 5.77189 479.953L5.61447 472.542C5.61434 472.233 5.92306 472.079 6.54061 472.078C7.15817 472.078 7.46701 472.232 7.46714 472.541C7.4687 476.35 7.77864 479.18 8.39696 481.032C8.91235 482.885 9.94212 484.12 11.4863 484.736C12.9275 485.353 15.192 485.661 18.2798 485.66L88.9904 485.631ZM89.5734 401.148C92.7641 401.147 95.0798 400.837 96.5206 400.219C97.9613 399.601 98.9386 398.417 99.4525 396.667C99.9664 394.814 100.223 391.932 100.221 388.021C100.221 387.712 100.53 387.557 101.147 387.557C101.765 387.557 102.073 387.711 102.074 388.02C102.075 391.108 102.024 393.578 101.922 395.431L101.772 406.392L101.931 417.045C102.035 418.898 102.087 421.42 102.089 424.61C102.089 424.919 101.78 425.074 101.162 425.074C100.545 425.074 100.236 424.92 100.236 424.611C100.234 420.7 99.9758 417.869 99.4605 416.12C98.9451 414.267 97.9668 413.033 96.5256 412.416C94.9814 411.696 92.6654 411.337 89.5776 411.338L18.095 411.367C15.0072 411.368 12.743 411.73 11.3023 412.451C9.86156 413.069 8.88426 414.304 8.37039 416.157C7.75355 417.907 7.44593 420.738 7.44753 424.649C7.44765 424.958 7.13894 425.112 6.52138 425.113C5.90382 425.113 5.59498 424.959 5.59485 424.65L5.74614 417.085C5.95022 412.762 6.05169 409.211 6.05056 406.432C6.04929 403.344 5.94485 399.638 5.73723 395.316L5.57987 388.059C5.57974 387.751 5.88846 387.596 6.50601 387.596C7.12357 387.596 7.43242 387.75 7.43254 388.059C7.4341 391.867 7.74404 394.697 8.36236 396.55C8.98068 398.402 10.0619 399.637 11.6061 400.254C13.0473 400.871 15.3118 401.179 18.3996 401.177L89.5734 401.148ZM102.669 333.824C102.67 336.809 102.517 340.257 102.21 344.168C102.108 345.609 102.006 347.462 101.904 349.726C101.801 351.888 101.751 354.307 101.752 356.983L101.911 367.481C102.014 369.334 102.067 371.907 102.068 375.201C102.068 375.407 101.76 375.51 101.142 375.51C100.525 375.51 100.216 375.407 100.216 375.201C100.214 371.29 99.9556 368.46 99.4403 366.71C98.9249 364.858 97.9466 363.623 96.5053 363.006C94.9611 362.286 92.6451 361.927 89.5573 361.928L18.0748 361.958C14.987 361.959 12.7227 362.268 11.282 362.887C9.84126 363.505 8.86396 364.74 8.35009 366.593C7.73325 368.343 7.42563 371.174 7.42723 375.085C7.42731 375.291 7.11858 375.394 6.50102 375.394C5.88346 375.394 5.57464 375.292 5.57455 375.086L5.72578 367.366C5.92986 363.043 6.03137 359.595 6.03032 357.022C6.02872 353.111 5.87275 349.251 5.56241 345.443C5.3547 340.914 5.25049 337.775 5.24977 336.025C5.24539 325.321 7.30004 315.851 11.4137 307.615C15.5274 299.379 21.1343 292.995 28.2344 288.464C35.3345 283.829 43.3103 281.51 52.162 281.506C62.1459 281.502 70.9986 283.866 78.72 288.597C86.3385 293.226 92.2593 299.554 96.4826 307.58C100.603 315.607 102.665 324.355 102.669 333.824ZM100.354 335.369C100.35 327.135 98.6491 319.827 95.2499 313.447C91.7478 307.067 86.6509 302.129 79.9592 298.632C73.1646 295.033 65.0327 293.235 55.5634 293.239C46.6088 293.242 38.4783 294.944 31.1719 298.343C23.8655 301.743 18.1035 306.583 13.8861 312.863C9.6687 319.143 7.56168 326.401 7.56505 334.635C7.56686 339.061 7.82559 342.509 8.34124 344.979C8.85684 347.346 9.88682 349.095 11.4312 350.227C12.9756 351.358 15.2916 351.923 18.3794 351.922L87.8549 351.894C90.9427 351.892 93.3613 351.48 95.1108 350.655C96.8601 349.728 98.1975 348.081 99.1229 345.713C99.9453 343.243 100.356 339.795 100.354 335.369ZM56.4696 244.19L56.4529 203.277L59.5403 202.195L59.5581 245.733L56.4696 244.19ZM100.131 167.75C100.131 167.338 100.439 167.132 101.057 167.132C101.674 167.131 101.983 167.337 101.983 167.749C101.984 169.704 101.883 172.741 101.678 176.858C101.474 180.975 101.372 183.96 101.373 185.813C101.374 188.077 101.478 190.959 101.686 194.458C101.893 197.752 101.997 200.274 101.997 202.023C101.998 202.435 101.689 202.641 101.071 202.641C100.454 202.642 100.145 202.436 100.145 202.024C100.143 198.113 99.7818 195.334 99.0606 193.687C98.3394 191.938 97.0525 191.064 95.1998 191.064C93.6559 191.065 91.4947 191.683 88.7162 192.92L16.3213 227.224L11.5336 223.366L82.4109 253.289C85.911 254.728 88.7932 255.448 91.0576 255.447C97.1303 255.444 100.165 250.4 100.16 240.313C100.16 239.798 100.469 239.541 101.086 239.54C101.704 239.54 102.013 239.797 102.013 240.312C102.014 242.165 101.912 244.841 101.708 248.34C101.503 252.252 101.402 255.648 101.403 258.53C101.404 261.206 101.508 264.294 101.716 267.794C101.923 270.881 102.027 273.454 102.028 275.513C102.028 276.028 101.719 276.285 101.102 276.285C100.484 276.286 100.175 276.028 100.175 275.514C100.174 272.632 99.6581 270.213 98.628 268.258C97.4949 266.2 95.59 264.297 92.9132 262.548C90.1334 260.696 86.1699 258.691 81.0227 256.532L4.12316 223.987C3.8143 223.781 3.65976 223.421 3.65955 222.906C3.65934 222.392 3.8136 222.083 4.12234 221.98L80.8392 185.512C88.4544 182.01 93.5995 179.023 96.2746 176.551C98.8467 174.08 100.132 171.146 100.131 167.75ZM8.39422 97.3623C8.18837 97.3624 8.08561 97.7741 8.08595 98.5975C8.09349 117.021 8.40741 129.578 9.02771 136.268C9.54509 142.958 10.8851 147.641 13.0476 150.316C15.2101 152.888 19.2767 155.254 25.2473 157.413C25.4532 157.413 25.5562 157.619 25.5564 158.031C25.5565 158.339 25.5051 158.648 25.4023 158.957C25.1966 159.266 25.0423 159.369 24.9393 159.266L0.851937 153.1C0.749011 153.1 0.697464 152.894 0.697296 152.483C0.696874 151.453 0.851094 151.042 1.15995 151.247C1.46878 151.35 1.88051 151.401 2.39514 151.401C3.63026 151.401 4.45345 150.834 4.86469 149.702C5.27589 148.467 5.48075 146.048 5.47928 142.445L5.4562 86.093C5.45603 85.6813 5.71322 85.3724 6.22777 85.1664C6.63934 84.8574 7.05103 84.8058 7.46282 85.0115L97.8056 145.187L98.7322 145.649C98.938 145.649 99.0408 145.238 99.0404 144.414L99.0243 105.045C99.0215 98.1486 97.5784 92.8999 94.6949 89.2987C91.8115 85.6974 87.2818 83.332 81.1057 82.2023C80.8998 82.0994 80.7968 81.7907 80.7966 81.2761C80.7963 80.7614 80.8992 80.5041 81.105 80.504L100.713 82.6574C101.022 82.6573 101.383 82.8115 101.794 83.1202C102.103 83.3259 102.258 83.6346 102.258 84.0463C102.058 99.3825 101.965 123.982 101.979 157.845C101.98 158.359 101.774 158.72 101.362 158.926C100.848 159.132 100.384 159.081 99.9727 158.772L9.32075 97.8251L8.39422 97.3623ZM101.943 68.804C101.943 69.0099 101.634 69.113 101.017 69.1132C100.399 69.1135 100.09 69.0107 100.09 68.8048C100.089 64.8936 99.8301 62.0632 99.3148 60.3137C98.7994 58.4612 97.8211 57.2265 96.3798 56.6095C94.8356 55.8897 92.5197 55.5304 89.4319 55.5316L17.9493 55.5609C14.8615 55.5622 12.5972 55.9233 11.1566 56.6444C9.71584 57.2626 8.73854 58.4981 8.22467 60.351C7.60783 62.101 7.30021 64.9316 7.30181 68.8428C7.30189 69.0487 6.99316 69.1517 6.3756 69.152C5.75804 69.1522 5.44922 69.0494 5.44914 68.8436L5.42372 6.77879C5.42334 5.85245 5.88632 5.38909 6.81265 5.38871L25.8025 5.07215C26.1113 5.07202 26.3173 5.38072 26.4204 5.99824C26.4206 6.51287 26.2664 6.77025 25.9576 6.77038C20.5026 7.08139 16.2833 8.72995 13.2996 11.716C10.213 14.7022 8.67077 18.6655 8.67279 23.606L8.67665 33.0238C8.67813 36.6262 8.988 39.3022 9.60628 41.0517C10.1216 42.8012 11.0485 44.0359 12.3868 44.7559C13.7251 45.3729 15.8352 45.6808 18.7172 45.6796L88.8102 45.6509C91.5893 45.6498 93.6991 45.3401 95.1399 44.722C96.4776 44.001 97.4035 42.8169 97.9174 41.1699C98.4314 39.5228 98.6876 36.9496 98.6862 33.4501L98.6812 21.0989C98.6791 16.1584 96.9277 12.042 93.4268 8.74982C89.926 5.4576 85.0875 3.24666 78.9115 2.11699C78.7056 2.11707 78.6026 1.91126 78.6024 1.49956C78.6023 1.19078 78.7051 0.933418 78.9109 0.72748C79.0137 0.418659 79.1166 0.264227 79.2195 0.264185C85.7042 1.18787 92.4976 1.64826 99.5995 1.64535C100.423 1.64501 101.041 1.85061 101.452 2.26215C101.761 2.5708 101.916 3.1883 101.916 4.11464L101.943 68.804ZM65.9471 12.7752C61.4183 12.7771 58.1766 13.9106 56.2219 16.1758C54.2672 18.338 53.2908 21.9923 53.293 27.1387L53.3024 50.2972L50.0603 50.2985L50.0506 26.6768C50.0486 21.7363 49.2237 18.2372 47.576 16.1793C45.9283 14.0185 43.1489 12.9389 39.2377 12.9405C39.0318 12.9406 38.9287 12.6319 38.9285 12.0143C38.9282 11.3968 39.031 11.0879 39.2369 11.0879L51.7425 11.2371C54.7274 11.2359 56.9918 11.1835 58.5356 11.08L65.9463 10.9225C66.1522 10.9224 66.2552 11.2312 66.2555 11.8487C66.2557 12.4663 66.1529 12.7751 65.9471 12.7752Z" fill="#2F4A52"/>
</svg>
