<svg width="24" height="24" viewBox="0 0 24 24" fill="none" xmlns="http://www.w3.org/2000/svg">
<g clip-path="url(#clip0_61_842)">
<path d="M12.1153 2.14016C15.2907 2.14016 15.6668 2.15409 16.9156 2.2098C18.0762 2.26086 18.7029 2.45584 19.1208 2.61833C19.6732 2.83188 20.0724 3.09186 20.4856 3.50503C20.9034 3.92285 21.1588 4.31746 21.3723 4.86991C21.5348 5.28773 21.7298 5.9191 21.7809 7.07506C21.8366 8.32852 21.8505 8.70455 21.8505 11.8753C21.8505 15.0508 21.8366 15.4268 21.7809 16.6756C21.7298 17.8362 21.5348 18.4629 21.3723 18.8808C21.1588 19.4332 20.8988 19.8325 20.4856 20.2456C20.0678 20.6634 19.6732 20.9188 19.1208 21.1323C18.7029 21.2948 18.0716 21.4898 16.9156 21.5409C15.6621 21.5966 15.2861 21.6105 12.1153 21.6105C8.93991 21.6105 8.56387 21.5966 7.31506 21.5409C6.15445 21.4898 5.52772 21.2948 5.1099 21.1323C4.55746 20.9188 4.15821 20.6588 3.74503 20.2456C3.32721 19.8278 3.07188 19.4332 2.85833 18.8808C2.69584 18.4629 2.50086 17.8316 2.44979 16.6756C2.39408 15.4221 2.38016 15.0461 2.38016 11.8753C2.38016 8.69991 2.39408 8.32387 2.44979 7.07506C2.50086 5.91445 2.69584 5.28773 2.85833 4.86991C3.07188 4.31746 3.33185 3.91821 3.74503 3.50503C4.16285 3.08721 4.55746 2.83188 5.1099 2.61833C5.52772 2.45584 6.15909 2.26086 7.31506 2.2098C8.56387 2.15409 8.93991 2.14016 12.1153 2.14016ZM12.1153 0C8.88884 0 8.48495 0.0139273 7.21757 0.0696364C5.95483 0.125346 5.08669 0.329612 4.33462 0.622085C3.55005 0.928486 2.88618 1.33238 2.22696 1.99624C1.56309 2.65547 1.1592 3.31934 0.852798 4.09926C0.560325 4.85598 0.356058 5.71947 0.300349 6.98221C0.24464 8.25424 0.230713 8.65813 0.230713 11.8846C0.230713 15.1111 0.24464 15.515 0.300349 16.7824C0.356058 18.0451 0.560325 18.9133 0.852798 19.6653C1.1592 20.4499 1.56309 21.1138 2.22696 21.773C2.88618 22.4322 3.55005 22.8407 4.32998 23.1425C5.08669 23.435 5.95018 23.6392 7.21292 23.695C8.48031 23.7507 8.8842 23.7646 12.1107 23.7646C15.3372 23.7646 15.7411 23.7507 17.0084 23.695C18.2712 23.6392 19.1393 23.435 19.8914 23.1425C20.6713 22.8407 21.3352 22.4322 21.9944 21.773C22.6536 21.1138 23.0622 20.4499 23.3639 19.67C23.6564 18.9133 23.8607 18.0498 23.9164 16.787C23.9721 15.5196 23.986 15.1157 23.986 11.8893C23.986 8.66277 23.9721 8.25888 23.9164 6.9915C23.8607 5.72876 23.6564 4.86062 23.3639 4.10855C23.0715 3.31934 22.6676 2.65547 22.0037 1.99624C21.3445 1.33702 20.6806 0.928486 19.9007 0.626728C19.144 0.334255 18.2805 0.129988 17.0177 0.0742788C15.7457 0.0139273 15.3418 0 12.1153 0Z" fill="white"/>
<path d="M12.1153 5.77979C8.74489 5.77979 6.0105 8.51418 6.0105 11.8846C6.0105 15.255 8.74489 17.9894 12.1153 17.9894C15.4857 17.9894 18.2201 15.255 18.2201 11.8846C18.2201 8.51418 15.4857 5.77979 12.1153 5.77979ZM12.1153 15.8446C9.92871 15.8446 8.1553 14.0712 8.1553 11.8846C8.1553 9.69799 9.92871 7.92459 12.1153 7.92459C14.3019 7.92459 16.0753 9.69799 16.0753 11.8846C16.0753 14.0712 14.3019 15.8446 12.1153 15.8446Z" fill="white"/>
<path d="M19.8867 5.53839C19.8867 6.3276 19.2461 6.96361 18.4615 6.96361C17.6723 6.96361 17.0363 6.32296 17.0363 5.53839C17.0363 4.74917 17.6769 4.11316 18.4615 4.11316C19.2461 4.11316 19.8867 4.75382 19.8867 5.53839Z" fill="white"/>
</g>
<defs>
<clipPath id="clip0_61_842">
<rect width="23.7692" height="23.7692" fill="white" transform="translate(0.230713)"/>
</clipPath>
</defs>
</svg>
